<svg width="27" height="25" viewBox="0 0 27 25" fill="none" xmlns="http://www.w3.org/2000/svg">
<path d="M22.4992 8.56644L22.2122 9.22679C22.1674 9.33432 22.0917 9.42617 21.9948 9.49078C21.8978 9.55539 21.7839 9.58986 21.6674 9.58986C21.5509 9.58986 21.437 9.55539 21.34 9.49078C21.2431 9.42617 21.1674 9.33432 21.1226 9.22679L20.8355 8.56644C20.3309 7.39826 19.4068 6.46164 18.2455 5.94139L17.36 5.54589C17.2526 5.49647 17.1615 5.41728 17.0977 5.31771C17.034 5.21815 17 5.10238 17 4.98412C17 4.86587 17.034 4.7501 17.0977 4.65054C17.1615 4.55097 17.2526 4.47178 17.36 4.42236L18.1965 4.05019C19.387 3.51512 20.3269 2.54386 20.8227 1.33647L21.1179 0.623625C21.1612 0.513203 21.2369 0.418402 21.3349 0.351583C21.4329 0.284763 21.5488 0.249023 21.6674 0.249023C21.786 0.249023 21.9019 0.284763 21.9999 0.351583C22.0979 0.418402 22.1736 0.513203 22.2169 0.623625L22.5121 1.33531C23.0073 2.54292 23.9469 3.5146 25.1371 4.05019L25.9748 4.42353C26.0819 4.47309 26.1726 4.55227 26.2362 4.6517C26.2997 4.75114 26.3335 4.86669 26.3335 4.98471C26.3335 5.10272 26.2997 5.21827 26.2362 5.31771C26.1726 5.41715 26.0819 5.49633 25.9748 5.54589L25.0881 5.94023C23.9271 6.461 23.0033 7.39803 22.4992 8.56644ZM12.3339 1.41697C5.89026 1.41697 0.666992 6.64024 0.666992 13.0839C0.666992 15.0707 1.16284 16.9409 2.03902 18.5778L0.666992 24.7508L6.83994 23.3787C8.5301 24.2821 10.4174 24.7534 12.3339 24.7508C18.7775 24.7508 24.0008 19.5275 24.0008 13.0839C24.0008 12.6141 23.9736 12.1513 23.9191 11.6955L21.6021 11.9697C21.6456 12.3352 21.6674 12.7066 21.6674 13.0839C21.6674 15.5593 20.684 17.9333 18.9337 19.6837C17.1833 21.434 14.8093 22.4174 12.3339 22.4174C10.8012 22.42 9.29178 22.0432 7.94013 21.3207L7.17828 20.9135L3.74005 21.6777L4.50423 18.2395L4.09589 17.4776C3.37378 16.1259 2.99741 14.6164 3.00037 13.0839C3.00001 11.6592 3.32578 10.2534 3.95274 8.97408C4.57969 7.69479 5.49118 6.57599 6.61736 5.70343C7.74354 4.83086 9.05452 4.22768 10.4499 3.94011C11.8452 3.65253 13.2878 3.68819 14.6673 4.04436L15.2483 1.78448C14.3149 1.54414 13.3384 1.41697 12.3339 1.41697ZM8.83382 13.0839H6.50044C6.50044 14.631 7.11503 16.1147 8.20901 17.2087C9.303 18.3027 10.7868 18.9173 12.3339 18.9173C13.881 18.9173 15.3648 18.3027 16.4588 17.2087C17.5527 16.1147 18.1673 14.631 18.1673 13.0839H15.834C15.834 14.0121 15.4652 14.9024 14.8088 15.5588C14.1524 16.2152 13.2622 16.5839 12.3339 16.5839C11.4056 16.5839 10.5154 16.2152 9.85896 15.5588C9.20257 14.9024 8.83382 14.0121 8.83382 13.0839Z" fill="url(#paint0_linear_1672_8073)"/>
<defs>
<linearGradient id="paint0_linear_1672_8073" x1="2.01786" y1="0.249027" x2="27.5584" y2="3.8009" gradientUnits="userSpaceOnUse">
<stop stop-color="#7E6DF1"/>
<stop offset="1" stop-color="#E25FB2"/>
</linearGradient>
</defs>
</svg>
